<mxfile host="app.diagrams.net" modified="2023-06-01T13:44:30.288Z" agent="Mozilla/5.0 (Windows NT 10.0; Win64; x64) AppleWebKit/537.36 (KHTML, like Gecko) Chrome/113.0.0.0 Safari/537.36 Edg/113.0.1774.57" version="21.3.5" etag="_v7X6F8Q82SVsdcEesxa" type="github">
  <diagram name="第 1 页" id="X2oO2R7VjCh5cZsb3q9C">
    <mxGraphModel>
      <root>
        <mxCell id="0" />
        <mxCell id="1" parent="0" />
      </root>
    </mxGraphModel>
  </diagram>
</mxfile>
